<svg width="308" height="51" viewBox="0 0 308 51" fill="none" xmlns="http://www.w3.org/2000/svg">
<path d="M10.96 38.8L10.33 25.71L33.78 0.999997H46.38L25.24 23.75L18.94 30.47L10.96 38.8ZM0.81 50V0.999997H12.08V50H0.81ZM34.34 50L16.91 28.65L24.33 20.6L47.57 50H34.34ZM66.5564 20.74H90.1464V29.56H66.5564V20.74ZM67.3964 40.9H94.0664V50H56.1264V0.999997H93.1564V10.1H67.3964V40.9ZM106.589 50V0.999997H128.849C134.169 0.999997 138.859 2.02666 142.919 4.08C146.979 6.08666 150.153 8.91 152.439 12.55C154.726 16.19 155.869 20.5067 155.869 25.5C155.869 30.4467 154.726 34.7633 152.439 38.45C150.153 42.09 146.979 44.9367 142.919 46.99C138.859 48.9967 134.169 50 128.849 50H106.589ZM117.929 40.69H128.289C131.556 40.69 134.379 40.0833 136.759 38.87C139.186 37.61 141.053 35.8367 142.359 33.55C143.713 31.2633 144.389 28.58 144.389 25.5C144.389 22.3733 143.713 19.69 142.359 17.45C141.053 15.1633 139.186 13.4133 136.759 12.2C134.379 10.94 131.556 10.31 128.289 10.31H117.929V40.69ZM191.721 50.84C187.848 50.84 184.255 50.21 180.941 48.95C177.675 47.69 174.828 45.9167 172.401 43.63C170.021 41.3433 168.155 38.66 166.801 35.58C165.495 32.5 164.841 29.14 164.841 25.5C164.841 21.86 165.495 18.5 166.801 15.42C168.155 12.34 170.045 9.65667 172.471 7.37C174.898 5.08333 177.745 3.31 181.011 2.05C184.278 0.789998 187.825 0.159999 191.651 0.159999C195.525 0.159999 199.071 0.789998 202.291 2.05C205.558 3.31 208.381 5.08333 210.761 7.37C213.188 9.65667 215.078 12.34 216.431 15.42C217.785 18.4533 218.461 21.8133 218.461 25.5C218.461 29.14 217.785 32.5233 216.431 35.65C215.078 38.73 213.188 41.4133 210.761 43.7C208.381 45.94 205.558 47.69 202.291 48.95C199.071 50.21 195.548 50.84 191.721 50.84ZM191.651 41.18C193.845 41.18 195.851 40.8067 197.671 40.06C199.538 39.3133 201.171 38.24 202.571 36.84C203.971 35.44 205.045 33.7833 205.791 31.87C206.585 29.9567 206.981 27.8333 206.981 25.5C206.981 23.1667 206.585 21.0433 205.791 19.13C205.045 17.2167 203.971 15.56 202.571 14.16C201.218 12.76 199.608 11.6867 197.741 10.94C195.875 10.1933 193.845 9.82 191.651 9.82C189.458 9.82 187.428 10.1933 185.561 10.94C183.741 11.6867 182.131 12.76 180.731 14.16C179.331 15.56 178.235 17.2167 177.441 19.13C176.695 21.0433 176.321 23.1667 176.321 25.5C176.321 27.7867 176.695 29.91 177.441 31.87C178.235 33.7833 179.308 35.44 180.661 36.84C182.061 38.24 183.695 39.3133 185.561 40.06C187.428 40.8067 189.458 41.18 191.651 41.18ZM230.484 50V0.999997H241.824V50H230.484ZM280.753 50.84C276.879 50.84 273.286 50.21 269.973 48.95C266.706 47.69 263.859 45.9167 261.433 43.63C259.053 41.3433 257.186 38.66 255.833 35.58C254.526 32.5 253.873 29.14 253.873 25.5C253.873 21.86 254.526 18.5 255.833 15.42C257.186 12.34 259.076 9.65667 261.503 7.37C263.929 5.08333 266.776 3.31 270.043 2.05C273.309 0.789998 276.856 0.159999 280.683 0.159999C284.556 0.159999 288.103 0.789998 291.323 2.05C294.589 3.31 297.413 5.08333 299.793 7.37C302.219 9.65667 304.109 12.34 305.463 15.42C306.816 18.4533 307.493 21.8133 307.493 25.5C307.493 29.14 306.816 32.5233 305.463 35.65C304.109 38.73 302.219 41.4133 299.793 43.7C297.413 45.94 294.589 47.69 291.323 48.95C288.103 50.21 284.579 50.84 280.753 50.84ZM280.683 41.18C282.876 41.18 284.883 40.8067 286.703 40.06C288.569 39.3133 290.203 38.24 291.603 36.84C293.003 35.44 294.076 33.7833 294.823 31.87C295.616 29.9567 296.013 27.8333 296.013 25.5C296.013 23.1667 295.616 21.0433 294.823 19.13C294.076 17.2167 293.003 15.56 291.603 14.16C290.249 12.76 288.639 11.6867 286.773 10.94C284.906 10.1933 282.876 9.82 280.683 9.82C278.489 9.82 276.459 10.1933 274.593 10.94C272.773 11.6867 271.163 12.76 269.763 14.16C268.363 15.56 267.266 17.2167 266.473 19.13C265.726 21.0433 265.353 23.1667 265.353 25.5C265.353 27.7867 265.726 29.91 266.473 31.87C267.266 33.7833 268.339 35.44 269.693 36.84C271.093 38.24 272.726 39.3133 274.593 40.06C276.459 40.8067 278.489 41.18 280.683 41.18Z" fill="black"/>
</svg>
