<svg width="30" height="30" viewBox="0 0 30 30" fill="none" xmlns="http://www.w3.org/2000/svg">
<path d="M15 30L12.825 27.8747C10.3 25.3951 8.2125 23.2561 6.5625 21.4578C4.9125 19.6594 3.6 18.045 2.625 16.6144C1.65 15.1839 0.96875 13.8692 0.58125 12.6703C0.19375 11.4714 0 10.2452 0 8.99183C0 6.43052 0.7875 4.29155 2.3625 2.57493C3.9375 0.858311 5.9 0 8.25 0C9.55 0 10.7875 0.299727 11.9625 0.899183C13.1375 1.49864 14.15 2.34332 15 3.43324C15.85 2.34332 16.8625 1.49864 18.0375 0.899183C19.2125 0.299727 20.45 0 21.75 0C24.1 0 26.0625 0.858311 27.6375 2.57493C29.2125 4.29155 30 6.43052 30 8.99183C30 10.2452 29.8063 11.4714 29.4188 12.6703C29.0313 13.8692 28.35 15.1839 27.375 16.6144C26.4 18.045 25.0875 19.6594 23.4375 21.4578C21.7875 23.2561 19.7 25.3951 17.175 27.8747L15 30ZM15 25.5858C17.4 23.2425 19.375 21.233 20.925 19.5572C22.475 17.8815 23.7 16.4237 24.6 15.1839C25.5 13.9441 26.125 12.8406 26.475 11.8733C26.825 10.906 27 9.9455 27 8.99183C27 7.35695 26.5 5.99455 25.5 4.90463C24.5 3.81471 23.25 3.26975 21.75 3.26975C20.575 3.26975 19.4875 3.63079 18.4875 4.35286C17.4875 5.07493 16.8 5.99455 16.425 7.11172H13.575C13.2 5.99455 12.5125 5.07493 11.5125 4.35286C10.5125 3.63079 9.425 3.26975 8.25 3.26975C6.75 3.26975 5.5 3.81471 4.5 4.90463C3.5 5.99455 3 7.35695 3 8.99183C3 9.9455 3.175 10.906 3.525 11.8733C3.875 12.8406 4.5 13.9441 5.4 15.1839C6.3 16.4237 7.525 17.8815 9.075 19.5572C10.625 21.233 12.6 23.2425 15 25.5858Z" fill="black"/>
</svg>
