<svg width="39" height="39" viewBox="0 0 39 39" fill="none" xmlns="http://www.w3.org/2000/svg">
<path d="M12.4262 21.2418L28.1174 36.6095C28.2987 36.7882 28.5187 36.9113 28.7557 36.9668C28.9927 37.0222 29.2386 37.0081 29.4692 36.9258C29.6998 36.8435 29.9073 36.6958 30.0711 36.4973C30.235 36.2988 30.3496 36.0563 30.4038 35.7935L36.9665 3.89248C37.0216 3.61775 37.0085 3.33154 36.9288 3.06441C36.8491 2.79727 36.7058 2.55924 36.514 2.37573C36.3223 2.19222 36.0894 2.07011 35.8401 2.02245C35.5909 1.97478 35.3347 2.00335 35.099 2.10509L2.87888 16.1905C1.58729 16.7539 1.76183 18.8522 3.12324 19.163L12.4262 21.2418Z" stroke="black" stroke-width="3" stroke-linecap="round" stroke-linejoin="round"/>
<path d="M12.2939 21.3617L36.3136 2.74463" stroke="black" stroke-width="3" stroke-linecap="round" stroke-linejoin="round"/>
<path d="M20.5292 29.3508L14.8067 35.073C14.6026 35.2803 14.3414 35.4222 14.0564 35.4807C13.7714 35.5392 13.4754 35.5117 13.2061 35.4016C12.9367 35.2915 12.7062 35.1039 12.5438 34.8625C12.3814 34.6211 12.2944 34.3369 12.2939 34.0459V22.1064" stroke="black" stroke-width="3" stroke-linecap="round" stroke-linejoin="round"/>
</svg>
