<svg width="45" height="35" viewBox="0 0 45 35" fill="none" xmlns="http://www.w3.org/2000/svg">
<path d="M23.291 2.91591C29.0301 2.91591 33.7234 3.01614 38.0651 3.21661H38.1266H38.1881C40.2183 3.21661 41.8794 5.2213 41.8794 7.69071V7.79094L41.8882 7.89117C42.0903 10.9893 42.187 14.2059 42.187 17.4499C42.1958 20.6938 42.0903 23.9104 41.8882 27.0086L41.8794 27.1088V27.2091C41.8794 28.4665 41.4663 29.6329 40.7017 30.4986C40.0162 31.2822 39.1197 31.7196 38.1881 31.7196H38.1178H38.0475C33.3982 31.9474 28.4852 32.0659 23.4229 32.0659C23.1152 32.0659 22.7988 32.0659 22.4912 32.0659C22.1748 32.0659 21.8584 32.0659 21.542 32.0659C16.4621 32.0659 11.5491 31.9474 6.93499 31.7287H6.86468H6.79437C5.86275 31.7287 4.97508 31.2913 4.28955 30.5077C3.53371 29.642 3.11185 28.4757 3.11185 27.2182V27.1179L3.10306 27.0177C2.89212 23.9104 2.79545 20.6938 2.81302 17.4772V17.4681V17.459C2.80424 14.2424 2.90091 11.0349 3.10306 7.92762L3.11185 7.82739V7.72715C3.11185 5.24863 4.76415 3.23483 6.79437 3.23483H6.85589H6.91741C11.2679 3.02525 15.9611 2.93413 21.7002 2.93413H22.4912H23.291M23.291 0C23.0274 0 22.7637 0 22.5 0C22.2364 0 21.9727 0 21.709 0C16.6467 0 11.6722 0.072898 6.80316 0.300703C3.21731 0.300703 0.308205 3.60844 0.308205 7.70893C0.0884844 10.9711 -0.00819286 14.215 0.000595978 17.4681C-0.00819286 20.7212 0.0796955 23.9651 0.299417 27.2182C0.299417 31.3187 3.20852 34.6537 6.79437 34.6537C11.6107 34.8907 16.5236 35 21.542 35C21.8584 35 22.1836 35 22.5 35C22.8164 35 23.1328 35 23.4404 35C28.4589 35 33.3718 34.8907 38.1969 34.6537C41.7915 34.6537 44.7006 31.3187 44.7006 27.2182C44.9116 23.9651 45.0082 20.7121 44.9995 17.459C45.0082 14.2059 44.9116 10.962 44.7006 7.69982C44.7006 3.59932 41.7915 0.309815 38.1969 0.309815C33.3279 0.0728978 28.3622 0 23.291 0Z" fill="black"/>
<path d="M18.1934 26.4071V8.51074L30.9372 17.4589L18.1934 26.4071Z" fill="black"/>
</svg>
